#!OML:ASF X:\für Bonn\!DataBase\2005_08_10_Bjorn_Final\c3d\bjorn.ASF
:FULLY-SPECIFIED
:DEGREES
250
root 6.77305 19.0128 0.202074 433.135 85.7725 -654.219
lowerback -1.22113 3.0665 -2.25479
upperback 4.6423 4.57622 -4.44281
thorax 5.70403 2.35507 -3.0704
lowerneck 1.09312 -3.21437 2.49802
upperneck -8.1154 -4.14715 -0.166225
head -2.82732 -2.09636 -0.365656
rclavicle 1.03368e-014 4.77083e-014
rhumerus -31.9692 -7.87563 -84.6567
rradius 30.6111
rwrist 1.01452
rhand -12.3092 11.1394
rfingers 7.12502
rthumb 13.759 -18.3857
lclavicle 1.03368e-014 4.77083e-014
lhumerus -39.2169 -13.0455 83.5322
lradius 40.8155
lwrist 26.0579
lhand 8.8067 8.32331
lfingers 7.12502
lthumb 33.9937 35.1085
rfemur -5.40436 -1.17639 8.40808
rtibia 26.3617
rfoot -18.8933 18.266
rtoes -0.580656
lfemur -16.9121 7.93925 -24.8084
ltibia 33.6578
lfoot -18.5761 -6.33169
ltoes -2.72335
251
root 6.80105 18.9988 0.20393 434.262 85.588 -652.993
lowerback -1.32868 3.0081 -2.73359
upperback 4.63562 4.53417 -4.54173
thorax 5.72995 2.31693 -2.90434
lowerneck 0.579486 -3.14333 2.5898
upperneck -7.76763 -4.06741 -0.220565
head -2.61819 -2.05638 -0.412157
rclavicle -4.41302e-014 -5.00937e-014
rhumerus -32.3172 -8.02264 -84.5436
rradius 30.7637
rwrist 0.885503
rhand -12.2694 11.2783
rfingers 7.12502
rthumb 13.7974 -18.2442
lclavicle -4.41302e-014 -5.00937e-014
lhumerus -39.3902 -12.424 83.4907
lradius 40.7998
lwrist 25.5628
lhand 8.70486 7.49985
lfingers 7.12502
lthumb 33.8969 34.3064
rfemur -4.9222 -1.71372 8.08499
rtibia 25.8776
rfoot -18.8003 18.8948
rtoes 0.210071
lfemur -16.7251 8.59708 -24.9662
ltibia 33.7036
lfoot -18.7232 -7.2488
ltoes -2.24985
252
root 6.82768 18.9829 0.205281 435.513 85.4109 -651.596
lowerback -1.34998 2.95681 -3.17187
upperback 4.63686 4.49964 -4.66908
thorax 5.72179 2.28655 -2.79492
lowerneck 0.0692336 -3.09484 2.74906
upperneck -7.3855 -4.01786 -0.273547
head -2.40264 -2.03324 -0.468184
rclavicle -8.34896e-015 -3.89618e-014
rhumerus -32.6393 -8.4125 -84.3961
rradius 30.8384
rwrist 0.996402
rhand -12.2552 11.5389
rfingers 7.12502
rthumb 13.8111 -17.9827
lclavicle -8.34896e-015 -3.89618e-014
lhumerus -39.5704 -11.9009 83.4389
lradius 40.8782
lwrist 24.9296
lhand 8.45418 6.93406
lfingers 7.12502
lthumb 33.6587 33.7929
rfemur -4.41429 -2.26137 7.76624
rtibia 25.4492
rfoot -18.866 19.4733
rtoes 0.741145
lfemur -16.5089 9.17926 -25.1102
ltibia 33.7847
lfoot -18.8558 -8.1538
ltoes -1.34235
253
root 6.85326 18.9664 0.207661 436.665 85.2315 -650.298
lowerback -1.37755 2.88773 -3.65195
upperback 4.65886 4.44377 -4.76903
thorax 5.73409 2.24264 -2.63457
lowerneck -0.423321 -3.02262 2.86697
upperneck -7.03299 -3.9377 -0.31851
head -2.20043 -1.99362 -0.514025
rclavicle 9.34288e-015 2.38542e-015
rhumerus -32.884 -8.74914 -84.2369
rradius 30.8728
rwrist 1.1582
rhand -12.2877 11.7366
rfingers 7.12502
rthumb 13.7798 -17.787
lclavicle 9.34288e-015 2.38542e-015
lhumerus -39.7211 -11.3541 83.4122
lradius 40.8922
lwrist 24.0679
lhand 7.9714 6.34935
lfingers 7.12502
lthumb 33.1998 33.3072
rfemur -3.93076 -2.82565 7.44186
rtibia 25.0632
rfoot -18.7972 20.0774
rtoes 1.55685
lfemur -16.322 9.85578 -25.2438
ltibia 33.8974
lfoot -18.9775 -9.14141
ltoes -0.546456
254
root 6.87831 18.9484 0.21108 437.689 85.0542 -649.121
lowerback -1.38116 2.82598 -4.11447
upperback 4.67807 4.39867 -4.89973
thorax 5.73524 2.20657 -2.51706
lowerneck -0.921044 -2.95211 3.08929
upperneck -6.64731 -3.86264 -0.394753
head -1.99201 -1.95813 -0.586645
rclavicle -5.02925e-014 3.97569e-014
rhumerus -33.1262 -9.19715 -84.1031
rradius 30.8742
rwrist 1.3709
rhand -12.3252 11.899
rfingers 7.12502
rthumb 13.7436 -17.6271
lclavicle -5.02925e-014 3.97569e-014
lhumerus -39.8517 -10.8455 83.334
lradius 40.7982
lwrist 22.8886
lhand 7.18304 5.66902
lfingers 7.12502
lthumb 32.4499 32.7837
rfemur -3.47463 -3.41424 7.12017
rtibia 24.738
rfoot -18.657 20.6802
rtoes 2.03726
lfemur -16.1215 10.5618 -25.3624
ltibia 34.0076
lfoot -19.086 -10.156
ltoes 0.17242
255
root 6.90211 18.9326 0.213618 438.824 84.8839 -647.827
lowerback -1.35923 2.75355 -4.55606
upperback 4.71032 4.33788 -5.02636
thorax 5.73752 2.1638 -2.40925
lowerneck -1.4515 -2.87385 3.20962
upperneck -6.23617 -3.77621 -0.369734
head -1.76641 -1.91584 -0.610152
rclavicle -4.03533e-014 -1.59028e-015
rhumerus -33.272 -9.78564 -83.9122
rradius 30.7644
rwrist 1.74489
rhand -12.3415 12.0198
rfingers 7.12502
rthumb 13.7279 -17.5073
lclavicle -4.03533e-014 -1.59028e-015
lhumerus -39.9281 -10.316 83.2606
lradius 40.6255
lwrist 21.3664
lhand 6.08148 4.99878
lfingers 7.12502
lthumb 31.401 32.3231
rfemur -3.04515 -3.87903 6.81888
rtibia 24.4735
rfoot -18.6034 21.1363
rtoes 2.51668
lfemur -15.9165 11.2627 -25.4772
ltibia 34.1009
lfoot -19.1789 -11.183
ltoes 0.946548
256
root 6.92545 18.9186 0.216648 439.802 84.6927 -646.703
lowerback -1.3308 2.6797 -5.0467
upperback 4.72944 4.27477 -5.14256
thorax 5.71914 2.11753 -2.26439
lowerneck -1.85918 -2.78977 3.3495
upperneck -5.91973 -3.6801 -0.367232
head -1.59552 -1.86871 -0.641254
rclavicle 4.37326e-015 4.53229e-014
rhumerus -33.3773 -10.4736 -83.6609
rradius 30.5379
rwrist 2.20133
rhand -12.3102 12.0869
rfingers 7.12502
rthumb 13.7581 -17.4382
lclavicle 4.37326e-015 4.53229e-014
lhumerus -39.9427 -9.83112 83.226
lradius 40.3143
lwrist 19.5758
lhand 4.69266 4.26266
lfingers 7.12502
lthumb 30.0768 31.836
rfemur -2.66008 -4.23584 6.51083
rtibia 24.2786
rfoot -18.6773 21.4957
rtoes 2.7507
lfemur -15.7031 12.0307 -25.5992
ltibia 34.1511
lfoot -19.2083 -12.2874
ltoes 1.86319
